<svg width="142" height="65" viewBox="0 0 142 65" fill="none" xmlns="http://www.w3.org/2000/svg">
<g clip-path="url(#clip0_224_1898)">
<path d="M46.821 50.5971C45.3689 51.6304 43.8042 52.4954 42.157 53.1756C37.9347 54.8825 33.321 55.382 28.8313 54.6181C24.8674 53.9521 21.1362 52.295 17.9841 49.8009C15.5569 47.8034 13.5697 45.325 12.1475 42.5217C11.8143 41.8554 6.81721 34.5063 11.318 23.1994C15.8187 11.8926 26.7391 8.7344 34.1349 8.17472C42.4801 7.54508 50.1257 10.9898 56.6587 14.4112C58.8274 15.5438 60.9429 16.7731 63.0816 17.9591L63.3082 17.9958C63.4881 18.0257 63.5347 18.0457 63.568 18.0157C63.6013 17.9858 63.568 17.8325 63.568 17.7426C63.5408 17.6484 63.498 17.5595 63.4414 17.4794C60.8962 15.3206 58.4543 13.0253 55.8291 11.0264C47.5306 4.69672 38.0926 1.41859 27.6853 2.36472C18.5805 3.18758 8.87603 9.06088 3.78228 18.6887C1.3847 23.3158 0.184391 28.4698 0.290947 33.6801C0.467317 41.3428 3.40985 48.6831 8.57535 54.3458C13.7408 60.0085 20.7805 63.6113 28.3948 64.4891C31.2969 64.7796 34.2235 64.7147 37.1099 64.2959C40.5782 63.7773 43.9478 62.736 47.1041 61.2077C47.0108 57.6741 46.9165 54.1373 46.821 50.5971Z" fill="#F00C18"/>
<path d="M95.0331 14.4085C100.482 10.9141 107.058 9.62639 113.423 10.8072C117.364 11.5697 121.049 13.3174 124.133 15.8877C126.504 17.9427 128.423 20.4665 129.77 23.3001C130.086 23.9664 134.887 31.4387 130.103 42.6223C125.319 53.8059 114.355 56.6676 106.963 57.0474C98.6144 57.4705 91.0654 53.8392 84.6424 50.2613C82.507 49.072 80.4215 47.7927 78.3127 46.5568L78.0895 46.5134C77.9096 46.4801 77.8663 46.4601 77.8296 46.4868C77.793 46.5134 77.8063 46.67 77.8296 46.76C77.8544 46.8549 77.895 46.945 77.9496 47.0265C80.4182 49.2452 82.7901 51.5872 85.3753 53.6627C93.504 60.1989 102.842 63.7003 113.259 63.0207C122.371 62.4277 132.212 56.8075 137.535 47.3196C140.051 42.7543 141.382 37.6309 141.407 32.4182C141.421 24.7587 138.663 17.3529 133.641 11.569C128.62 5.78516 121.674 2.0142 114.089 0.952877C111.2 0.580835 108.275 0.571881 105.384 0.926225C101.639 1.40205 97.9976 2.49158 94.6067 4.15105L95.0331 14.4085Z" fill="#FEE719"/>
<path d="M92.4581 2.57823C89.6331 3.73423 86.6714 4.63705 84.013 6.09621C77.5867 9.62752 72.9826 15.0911 69.0782 21.1676C65.6835 26.4412 62.5753 31.9081 59.0473 37.0885C55.9557 41.6259 52.4944 45.8068 48.3867 49.3081L48.6666 60.4517C51.4804 58.3551 54.1036 56.014 56.5054 53.4557C61.8357 47.769 63.2682 43.9678 73.6889 24.2791C73.6889 24.2791 81.2346 10.0273 89.1067 5.29001C89.9962 4.75365 90.9123 4.22728 90.9123 4.22728C91.6319 3.82418 92.2449 3.47438 92.7413 3.20787C92.8979 3.13791 93.0111 3.01798 93.0078 2.90138C93.0045 2.78478 92.768 2.53492 92.4581 2.57823Z" fill="#19A5FF"/>
<path d="M49.3395 62.3307C52.1646 61.1781 55.1295 60.2819 57.788 58.8294C64.2243 55.3081 68.8384 49.8512 72.7528 43.7847C76.1575 38.5177 79.2757 33.0575 82.8137 27.8838C85.9152 23.3498 89.3833 19.1788 93.4742 15.6841L93.2177 4.54053C90.3803 6.61443 87.7496 8.95729 85.3622 11.5365C78.0764 19.2987 73.5323 28.75 69.2248 38.3445C68.3197 40.5378 67.2817 42.6739 66.1166 44.7408C64.651 47.3061 62.9609 49.7365 61.0661 52.0033C58.2291 55.5024 54.7766 58.4536 50.8786 60.7117C49.686 61.378 49.1263 61.4079 49.0464 61.7278C49.0164 61.8477 49.043 62.0376 49.3395 62.3307Z" fill="#13D1FF"/>
<path d="M14.2114 38.353V37.2758L15.3236 37.066V29.4628L14.2114 29.2529V28.1688H18.9188C19.6836 28.1688 20.3364 28.2877 20.8773 28.5255C21.4183 28.7586 21.831 29.0944 22.1154 29.5327C22.3999 29.9711 22.5421 30.5003 22.5421 31.1205C22.5421 31.7174 22.3999 32.2373 22.1154 32.6803C21.8356 33.1233 21.4416 33.4684 20.9333 33.7155C20.4297 33.958 19.8375 34.0839 19.1567 34.0933L17.0862 34.1142V37.066L18.1984 37.2758V38.353H14.2114ZM20.8354 38.353L18.8909 33.6666L20.5416 33.3938L22.1923 37.094L22.9897 37.2619V38.353H20.8354ZM17.0862 32.7433H18.8419C19.5041 32.7433 19.9937 32.6104 20.3108 32.3446C20.6279 32.0741 20.7864 31.6824 20.7864 31.1695C20.7864 30.6705 20.6325 30.2742 20.3248 29.9804C20.017 29.6819 19.5484 29.5327 18.9188 29.5327H17.0862V32.7433ZM23.99 38.353V37.2758L25.1021 37.066V29.4628L23.99 29.2529V28.1688H31.7471V30.7918H30.3761L30.2572 29.5257H26.8648V32.4075H30.4391V33.7715H26.8648V37.01H30.4461L30.565 35.716H31.922V38.353H23.99ZM33.181 38.353V37.2758L34.2862 37.066V29.4628L33.181 29.2529V28.1688H34.2862H36.8113L39.798 35.5342H39.84L42.7358 28.1688H46.408V29.2529L45.2958 29.4628V37.066L46.408 37.2758V38.353H42.428V37.2758L43.5961 37.066V34.6948L43.6101 30.2392L43.5751 30.2322L40.4205 38.1222H39.1405L35.8949 30.2742L35.86 30.2812L35.9509 34.5759V37.066L37.161 37.2758V38.353H33.181ZM51.8079 38.4999C51.1317 38.4999 50.5208 38.374 49.9753 38.1222C49.4297 37.8657 48.961 37.5067 48.5693 37.045C48.1823 36.5834 47.8838 36.0378 47.674 35.4083C47.4642 34.7787 47.3592 34.0886 47.3592 33.3378V33.184C47.3592 32.4379 47.4642 31.75 47.674 31.1205C47.8838 30.491 48.1823 29.9454 48.5693 29.4838C48.961 29.0174 49.4297 28.6584 49.9753 28.4066C50.5208 28.1501 51.1294 28.0219 51.8009 28.0219C52.4957 28.0219 53.1182 28.1501 53.6685 28.4066C54.2187 28.6584 54.6874 29.0174 55.0744 29.4838C55.4614 29.9454 55.7575 30.491 55.9627 31.1205C56.1679 31.75 56.2705 32.4379 56.2705 33.184V33.3378C56.2705 34.0886 56.1679 34.7787 55.9627 35.4083C55.7575 36.0378 55.4614 36.5834 55.0744 37.045C54.6874 37.5067 54.2187 37.8657 53.6685 38.1222C53.1182 38.374 52.498 38.4999 51.8079 38.4999ZM51.8079 37.101C52.4234 37.101 52.9294 36.9448 53.3257 36.6323C53.7267 36.3152 54.0229 35.8746 54.214 35.3103C54.4099 34.7461 54.5078 34.0886 54.5078 33.3378V33.17C54.5078 32.4285 54.4099 31.778 54.214 31.2184C54.0182 30.6589 53.7198 30.2205 53.3187 29.9034C52.9224 29.5863 52.4164 29.4278 51.8009 29.4278C51.2133 29.4278 50.7214 29.5863 50.325 29.9034C49.9286 30.2205 49.6302 30.6589 49.4297 31.2184C49.2292 31.778 49.1289 32.4285 49.1289 33.17V33.3378C49.1289 34.0839 49.2292 34.7414 49.4297 35.3103C49.6302 35.8746 49.9286 36.3152 50.325 36.6323C50.726 36.9448 51.2203 37.101 51.8079 37.101Z" fill="#0D102F"/>
<path d="M88.7364 38.4999C88.0416 38.4999 87.3958 38.4136 86.7989 38.2411C86.202 38.0686 85.6214 37.7818 85.0572 37.3808V35.0375H86.4212L86.645 36.5554C86.8921 36.7326 87.1952 36.8748 87.5543 36.9821C87.918 37.0893 88.3121 37.1429 88.7364 37.1429C89.1514 37.1429 89.4988 37.0847 89.7786 36.9681C90.0631 36.8468 90.2799 36.679 90.4291 36.4645C90.5783 36.25 90.6529 35.9958 90.6529 35.702C90.6529 35.4316 90.5877 35.1914 90.4571 34.9816C90.3265 34.7717 90.1097 34.5852 89.8066 34.422C89.5035 34.2541 89.0931 34.1003 88.5755 33.9604C87.8154 33.7552 87.1789 33.5127 86.666 33.2329C86.1577 32.9531 85.773 32.6174 85.5119 32.2257C85.2554 31.834 85.1271 31.3723 85.1271 30.8407C85.1271 30.2951 85.274 29.8125 85.5678 29.3928C85.8662 28.9731 86.2789 28.6421 86.8059 28.3996C87.3328 28.1571 87.9413 28.0335 88.6315 28.0289C89.3869 28.0195 90.0537 28.1175 90.632 28.3226C91.2149 28.5278 91.7068 28.7959 92.1078 29.127V31.3164H90.7719L90.52 29.8895C90.3289 29.7542 90.0794 29.64 89.7716 29.5467C89.4685 29.4488 89.1095 29.3998 88.6944 29.3998C88.34 29.3998 88.0276 29.4581 87.7571 29.5747C87.4867 29.6913 87.2745 29.8568 87.1206 30.0713C86.9667 30.2812 86.8898 30.533 86.8898 30.8267C86.8898 31.0832 86.9574 31.307 87.0927 31.4982C87.2279 31.6894 87.454 31.8643 87.7711 32.0228C88.0882 32.1767 88.5172 32.3329 89.0582 32.4915C90.1633 32.7853 91.0004 33.1909 91.5693 33.7086C92.1382 34.2262 92.4226 34.886 92.4226 35.6881C92.4226 36.2523 92.2687 36.7466 91.961 37.1709C91.6579 37.5906 91.2288 37.917 90.6739 38.1502C90.1237 38.3833 89.4778 38.4999 88.7364 38.4999ZM95.808 38.353V37.2758L96.9202 37.066V29.5187H94.8707L94.7169 30.8197H93.3949V28.1688H102.215V30.8197H100.886L100.732 29.5187H98.6829V37.066L99.795 37.2758V38.353H95.808ZM101.621 38.353V37.2758L102.362 37.1709L105.734 28.1688H107.447L110.777 37.1709L111.518 37.2758V38.353H108.28V37.2758L109.007 37.1429L108.468 35.5412H104.677L104.125 37.1429L104.859 37.2758V38.353H101.621ZM105.139 34.1912H108.014L106.692 30.421L106.601 30.1483H106.559L106.461 30.435L105.139 34.1912ZM112.357 38.353V37.2758L113.47 37.066V29.4628L112.357 29.2529V28.1688H117.065C117.83 28.1688 118.482 28.2877 119.023 28.5255C119.564 28.7586 119.977 29.0944 120.261 29.5327C120.546 29.9711 120.688 30.5003 120.688 31.1205C120.688 31.7174 120.546 32.2373 120.261 32.6803C119.982 33.1233 119.588 33.4684 119.079 33.7155C118.576 33.958 117.984 34.0839 117.303 34.0933L115.232 34.1142V37.066L116.344 37.2758V38.353H112.357ZM118.981 38.353L117.037 33.6666L118.688 33.3938L120.338 37.094L121.136 37.2619V38.353H118.981ZM115.232 32.7433H116.988C117.65 32.7433 118.14 32.6104 118.457 32.3446C118.774 32.0741 118.932 31.6824 118.932 31.1695C118.932 30.6705 118.779 30.2742 118.471 29.9804C118.163 29.6819 117.694 29.5327 117.065 29.5327H115.232V32.7433ZM124.123 38.353V37.2758L125.235 37.066V29.5187H123.185L123.031 30.8197H121.709V28.1688H130.53V30.8197H129.201L129.047 29.5187H126.997V37.066L128.11 37.2758V38.353H124.123Z" fill="#0D102F"/>
</g>
<defs>
<clipPath id="clip0_224_1898">
<rect width="141.122" height="64" fill="white" transform="translate(0.283936 0.666016)"/>
</clipPath>
</defs>
</svg>
